<svg class="icon"
    style="width: 1em;height: 1em;vertical-align: middle;fill: currentColor;overflow: hidden;"
    viewBox="0 0 1024 1024" version="1.1" xmlns="http://www.w3.org/2000/svg" p-id="3141">
    <path
        d="M839.3 223.4c2.9-2.9 4.9-6.4 6.3-10.1l38 38c5.5 5.5 12.6 8.2 19.8 8.2 7.2 0 14.3-2.7 19.8-8.2 10.9-10.9 10.9-28.6 0-39.5L811.4 100c-10.9-10.9-28.6-10.9-39.5 0-10.9 10.9-10.9 28.6 0 39.5l38 38c-3.7 1.4-7.1 3.4-10.1 6.3L772.6 211c-64.7-51.5-145-84.1-232.5-89.9V91.8c0-15.4-12.5-27.9-27.9-27.9-15.4 0-27.9 12.5-27.9 27.9v29.4C266 135.7 92.9 317.3 92.9 539c0 231.2 188.1 419.2 419.2 419.2s419.2-188 419.2-419.2c0-112.6-44.9-214.9-117.4-290.3l25.4-25.3z m-327.2 679c-200.3 0-363.3-163-363.3-363.3s163-363.3 363.3-363.3 363.3 163 363.3 363.3-163 363.3-363.3 363.3z"
        fill="#8A8A8A" p-id="3142"></path>
    <path
        d="M540 460.3V259.5c0-15.4-12.5-27.9-27.9-27.9-15.4 0-27.9 12.5-27.9 27.9v200.8c-32.5 11.6-55.9 42.3-55.9 78.7 0 46.2 37.6 83.8 83.8 83.8 46.2 0 83.8-37.6 83.8-83.8 0-36.4-23.4-67.1-55.9-78.7z m0 106.7h-55.9v-55.9H540V567z"
        fill="#8A8A8A" p-id="3143"></path>
</svg>